<svg width="92" height="100" viewBox="0 0 92 100" fill="none" xmlns="http://www.w3.org/2000/svg">
<path d="M0 11.0299L46 17.1632L92 11.0299V24.5333H46H0V11.0299ZM33.2448 0H58.0428L49.5619 21.6055H41.7257L33.2448 0Z" fill="white"/>
<path d="M85.8666 86.4027C73.6762 83.5014 63.0011 85.2152 53.8414 79.2775C50.5602 77.1505 47.4605 74.8547 44.5423 72.39C42.5593 74.4071 40.4868 76.33 38.3248 78.1588C41.2669 80.7997 44.3849 83.2642 47.6788 85.5526C56.9732 91.8951 67.8503 96.6857 80.3102 99.9244L85.8666 86.4027Z" fill="white"/>
<path d="M32.5709 72.5309C34.4076 74.4882 36.3256 76.3642 38.3248 78.1588C40.4868 76.33 42.5593 74.4071 44.5423 72.39C42.4972 70.6628 40.5413 68.8526 38.6745 66.9595C36.7348 68.9093 34.7003 70.7664 32.5709 72.5309Z" fill="white"/>
<path d="M30.6055 57.5173C24.3419 48.8808 27.7768 39.1646 24.0725 28.3688H8.17773C12.3535 40.1767 17.6742 52.9292 24.1398 62.173C26.7288 65.8474 29.5391 69.3 32.5709 72.5309C34.7003 70.7664 36.7348 68.9093 38.6745 66.9595C35.7689 64.013 33.0792 60.8656 30.6055 57.5173Z" fill="white"/>
<path d="M8.17781 86.4027C20.3683 83.5014 31.0433 85.2152 40.203 79.2775C43.4842 77.1505 46.5839 74.8547 49.5021 72.39C51.4851 74.4071 53.5576 76.33 55.7196 78.1588C52.7776 80.7997 49.6596 83.2642 46.3656 85.5526C37.0712 91.8951 26.1941 96.6857 13.7342 99.9244L8.17781 86.4027Z" fill="white"/>
<path d="M61.4736 72.5309C59.6368 74.4882 57.7188 76.3642 55.7196 78.1588C53.5576 76.33 51.4851 74.4071 49.5021 72.39C51.5472 70.6628 53.5032 68.8526 55.37 66.9595C57.3096 68.9093 59.3442 70.7664 61.4736 72.5309Z" fill="white"/>
<path d="M63.439 57.5173C69.7026 48.8808 66.2677 39.1646 69.972 28.3688H85.8667C81.691 40.1767 76.3703 52.9292 69.9046 62.173C67.3156 65.8474 64.5053 69.3 61.4736 72.5309C59.3442 70.7664 57.3096 68.9093 55.37 66.9595C58.2756 64.013 60.9652 60.8656 63.439 57.5173Z" fill="white"/>
<path d="M40.8889 34.7556H53.1556L48.9283 46.9678C48.6829 47.6765 48.6002 48.4314 48.6862 49.1764L50.0889 61.3334H43.9556L45.3583 49.1764C45.4442 48.4314 45.3615 47.6765 45.1162 46.9678L40.8889 34.7556Z" fill="white"/>
</svg>
