<svg width="24" height="24" viewBox="0 0 24 24" fill="none" xmlns="http://www.w3.org/2000/svg">
<path d="M0 4.44057C0 3.51771 0.849706 2.82904 1.75255 3.02015L10.2428 4.81729C11.4014 5.06254 12.5986 5.06254 13.7572 4.81729L22.2474 3.02015C23.1503 2.82904 24 3.51771 24 4.44057C24 5.24242 23.35 5.89246 22.5481 5.89246H12H1.45189C0.650034 5.89246 0 5.24242 0 4.44057ZM9.9411 2.97538C9.34003 1.56557 10.3745 0 11.9071 0C13.4397 0 14.4741 1.56557 13.8731 2.97538L13.3301 4.249C13.087 4.81921 12.5269 5.18924 11.9071 5.18924C11.2872 5.18924 10.7272 4.81921 10.4841 4.249L9.9411 2.97538Z" fill="white"/>
<path d="M21.5352 22.69C21.9815 21.6901 21.3934 20.5414 20.3056 20.4158C17.982 20.1477 15.8954 20.145 14.0456 19.041C13.1896 18.5301 12.381 17.9787 11.6197 17.3867C11.1024 17.8712 10.5618 18.3331 9.99779 18.7723C10.7653 19.4066 11.5787 19.9985 12.438 20.5481C14.5109 21.8506 16.8857 22.8805 19.5623 23.638C20.3625 23.8645 21.1962 23.4495 21.5352 22.69Z" fill="white"/>
<path d="M8.49676 17.4206C8.9759 17.8907 9.47625 18.3413 9.99779 18.7723C10.5618 18.3331 11.1024 17.8712 11.6197 17.3867C11.0862 16.9719 10.576 16.5371 10.089 16.0824C9.583 16.5507 9.05226 16.9968 8.49676 17.4206Z" fill="white"/>
<path d="M7.98405 13.8146C6.62595 12.0905 7.01566 10.1873 6.63113 8.1049C6.48487 7.31287 5.74568 6.81366 4.94027 6.81366C3.58709 6.81366 2.65299 8.172 3.19943 9.40993C4.08627 11.4191 5.11891 13.3816 6.29735 14.9328C6.97274 15.8153 7.70587 16.6446 8.49676 17.4206C9.05226 16.9968 9.583 16.5507 10.089 16.0824C9.33102 15.3747 8.62937 14.6188 7.98405 13.8146Z" fill="white"/>
<path d="M2.99815 22.69C2.55187 21.6901 3.13993 20.5414 4.22769 20.4158C6.55128 20.1477 8.63796 20.145 10.4877 19.041C11.3437 18.5301 12.1523 17.9787 12.9136 17.3867C13.4309 17.8712 13.9715 18.3331 14.5355 18.7723C13.768 19.4066 12.9547 19.9985 12.0954 20.5481C10.0224 21.8506 7.64764 22.8805 4.97107 23.638C4.17079 23.8645 3.33713 23.4495 2.99815 22.69Z" fill="white"/>
<path d="M16.0366 17.4206C15.5574 17.8907 15.0571 18.3413 14.5355 18.7723C13.9715 18.3331 13.4309 17.8712 12.9136 17.3867C13.4471 16.9719 13.9573 16.5371 14.4443 16.0824C14.9503 16.5507 15.4811 16.9968 16.0366 17.4206Z" fill="white"/>
<path d="M16.5493 13.8146C17.9074 12.0905 17.5177 10.1873 17.9022 8.1049C18.0485 7.31287 18.7876 6.81366 19.5931 6.81366C20.9462 6.81366 21.8803 8.172 21.3339 9.40993C20.4471 11.4191 19.4144 13.3816 18.236 14.9328C17.5606 15.8153 16.8275 16.6446 16.0366 17.4206C15.4811 16.9968 14.9503 16.5507 14.4443 16.0824C15.2023 15.3747 15.904 14.6188 16.5493 13.8146Z" fill="white"/>
<path d="M11.1422 10.1407C10.5177 9.23474 11.1663 8 12.2667 8C13.367 8 14.0156 9.23474 13.3911 10.1407L13.0336 10.6594C12.7972 11.0023 12.6953 11.4201 12.7471 11.8332L13.0394 14.1657C13.0572 14.3081 13.0354 14.4527 12.9762 14.5835C12.7001 15.1939 11.8332 15.1939 11.5571 14.5835C11.498 14.4527 11.4761 14.3081 11.4939 14.1657L11.7863 11.8333C11.838 11.4201 11.7361 11.0023 11.4997 10.6594L11.1422 10.1407Z" fill="white"/>
</svg>
